<?xml version="1.0" standalone="no"?>
<!DOCTYPE svg PUBLIC "-//W3C//DTD SVG 20010904//EN"
 "http://www.w3.org/TR/2001/REC-SVG-20010904/DTD/svg10.dtd">
<svg version="1.0" xmlns="http://www.w3.org/2000/svg"
 width="225.000000pt" height="225.000000pt" viewBox="0 0 225.000000 225.000000"
 preserveAspectRatio="xMidYMid meet">

<g transform="translate(0.000000,225.000000) scale(0.100000,-0.100000)"
fill="#000000" stroke="none">
<path d="M1 1848 c1 -286 4 -383 10 -333 48 375 349 676 724 724 50 6 -47 9
-332 10 l-403 1 1 -402z"/>
<path d="M955 2239 c286 -37 543 -229 661 -495 104 -236 88 -535 -42 -756 -18
-33 -34 -63 -34 -69 0 -5 155 -164 345 -354 246 -247 347 -355 354 -378 6 -20
10 352 10 1016 l1 1047 -682 -1 c-449 -1 -659 -5 -613 -10z"/>
<path d="M664 1932 c-168 -59 -287 -178 -346 -346 -54 -157 -32 -342 57 -482
71 -110 192 -199 324 -238 72 -21 220 -21 292 0 191 56 337 202 393 393 20 67
21 217 2 287 -33 126 -130 258 -240 329 -140 89 -325 111 -482 57z"/>
<path d="M1 683 l-1 -683 1048 1 c663 0 1035 4 1015 10 -23 7 -131 108 -378
354 -190 190 -349 345 -354 345 -6 0 -36 -16 -69 -34 -221 -130 -520 -146
-756 -42 -266 118 -458 375 -495 661 -5 46 -9 -164 -10 -612z"/>
<path d="M2237 102 c-8 -41 -36 -71 -82 -87 l-40 -14 68 -1 67 0 0 65 c0 70
-4 82 -13 37z"/>
</g>
</svg>
