<svg id="Layer_1" data-name="Layer 1" xmlns="http://www.w3.org/2000/svg" viewBox="0 0 300 300"><defs><style>.cls-1{fill:none;stroke:#000;stroke-miterlimit:10;stroke-width:9px;}.cls-2{fill:#fff;}</style></defs><title>ahmed logo</title><path d="M119,179.16H58.67V162h4.09c23.4,0,46.8,0,70.19-.08a9.49,9.49,0,0,0,5.49-1.85c10.06-7.95,20-16.11,29.93-24.18a11.23,11.23,0,0,1,2.1-1.08l-.76-1.06H58.7V118.39H218.09a16,16,0,0,1-1.18,1.1c-25.62,19.89-51.28,39.7-76.79,59.73a30.08,30.08,0,0,0-7.9,9.18c-5,9.49-.54,19.17,9.79,22a25.53,25.53,0,0,0,6.69.8q57.75.08,115.48,0a6,6,0,0,0,4.14-2.16c5.09-6.68,9.95-13.54,14.88-20.34l6.53-9h-94a6.21,6.21,0,0,1,.63-.73c26.29-20.59,52.66-41.09,78.81-61.87a24.84,24.84,0,0,0,7.14-9.67c3.57-8.63-.55-17-9.43-19.74a31.84,31.84,0,0,0-9.53-1.3q-120-.1-240-.06H19.85V211h98.41C113.18,200.33,113.51,190,119,179.16Z"/><path d="M119,179.16c-5.5,10.81-5.83,21.17-.75,31.86H19.85V86.26h3.53q120,0,240,.06a31.84,31.84,0,0,1,9.53,1.3c8.88,2.79,13,11.11,9.43,19.74A24.84,24.84,0,0,1,275.2,117c-26.15,20.78-52.52,41.28-78.81,61.87a6.21,6.21,0,0,0-.63.73h94l-6.53,9c-4.93,6.8-9.79,13.66-14.88,20.34a6,6,0,0,1-4.14,2.16q-57.74.16-115.48,0a25.53,25.53,0,0,1-6.69-.8c-10.33-2.82-14.82-12.5-9.79-22a30.08,30.08,0,0,1,7.9-9.18c25.51-20,51.17-39.84,76.79-59.73a16,16,0,0,0,1.18-1.1H58.7v15.39h111l.76,1.06a11.23,11.23,0,0,0-2.1,1.08c-10,8.07-19.87,16.23-29.93,24.18A9.49,9.49,0,0,1,133,162c-23.39.12-46.79.08-70.19.08H58.67v17.13Z"/><path class="cls-1" d="M85.67,99.53s46.62-99.08,117.88,0"/><circle class="cls-2" cx="90.68" cy="104.26" r="5.31"/><circle class="cls-2" cx="195.47" cy="104.26" r="5.31"/><path d="M53.85,232.78c0-5.74,3.38-9.24,7.9-9.24a6.6,6.6,0,0,1,4.89,2.2l-1.24,1.47a4.84,4.84,0,0,0-3.61-1.68c-3.37,0-5.6,2.76-5.6,7.19S58.32,240,61.7,240a5.32,5.32,0,0,0,4.12-2l1.24,1.42A6.87,6.87,0,0,1,61.6,242C57.17,242,53.85,238.56,53.85,232.78Z"/><path d="M78,223.87H80.3v15.88h7.77v1.91H78Z"/><path d="M97.15,232.7c0-5.7,3.13-9.16,7.6-9.16s7.61,3.47,7.61,9.16-3.14,9.29-7.61,9.29S97.15,238.4,97.15,232.7Zm12.87,0c0-4.43-2.09-7.17-5.27-7.17s-5.26,2.74-5.26,7.17,2.09,7.3,5.26,7.3S110,237.13,110,232.7Z"/><path d="M126.91,225.79h-5.38v-1.92h13v1.92h-5.39v15.87h-2.26Z"/><path d="M145.41,223.87h2.26v7.45H156v-7.45h2.27v17.79H156V233.3h-8.28v8.36h-2.26Z"/><path d="M170.76,223.87H173v17.79h-2.26Z"/><path d="M185.56,223.87h2.34l6.44,11.19,1.92,3.68h.11c-.11-1.79-.29-3.8-.29-5.66v-9.21h2.15v17.79H195.9l-6.44-11.19-1.93-3.68h-.11c.12,1.8.29,3.7.29,5.56v9.31h-2.15Z"/><path d="M209.74,232.78c0-5.74,3.45-9.24,8.17-9.24a6.88,6.88,0,0,1,5.13,2.2l-1.24,1.47a5,5,0,0,0-3.83-1.68c-3.58,0-5.89,2.76-5.89,7.19S214.2,240,218,240A4.78,4.78,0,0,0,221.2,239v-4.63h-3.77v-1.88h5.84v7.48a7.59,7.59,0,0,1-5.49,2.07C213.09,242,209.74,238.56,209.74,232.78Z"/></svg>